<svg width="14" height="8" viewBox="0 0 14 8" fill="none" xmlns="http://www.w3.org/2000/svg">
<path fill-rule="evenodd" clip-rule="evenodd" d="M13.3534 7.85311C13.307 7.89967 13.2518 7.93661 13.191 7.96182C13.1303 7.98703 13.0652 8 12.9994 8C12.9336 8 12.8685 7.98703 12.8078 7.96182C12.747 7.93661 12.6919 7.89967 12.6454 7.85311L6.99941 2.20611L1.35341 7.85311C1.30692 7.89959 1.25173 7.93647 1.191 7.96163C1.13026 7.98679 1.06516 7.99974 0.999412 7.99974C0.933668 7.99974 0.868567 7.98679 0.807828 7.96163C0.747088 7.93647 0.691899 7.89959 0.645412 7.85311C0.598924 7.80662 0.562047 7.75143 0.536888 7.69069C0.511729 7.62995 0.49878 7.56485 0.49878 7.49911C0.49878 7.43336 0.511729 7.36826 0.536888 7.30752C0.562047 7.24678 0.598924 7.19159 0.645412 7.14511L6.64541 1.14511C6.69186 1.09854 6.74703 1.0616 6.80778 1.03639C6.86852 1.01119 6.93364 0.998212 6.99941 0.998212C7.06518 0.998212 7.1303 1.01119 7.19105 1.03639C7.25179 1.0616 7.30697 1.09854 7.35341 1.14511L13.3534 7.14511C13.4 7.19155 13.4369 7.24673 13.4621 7.30747C13.4873 7.36822 13.5003 7.43334 13.5003 7.49911C13.5003 7.56487 13.4873 7.62999 13.4621 7.69074C13.4369 7.75149 13.4 7.80666 13.3534 7.85311Z" fill="white"/>
</svg>
