<svg width="226" height="124" viewBox="0 0 226 124" fill="none" xmlns="http://www.w3.org/2000/svg">
<g clip-path="url(#clip0_219_140)">
<path fill-rule="evenodd" clip-rule="evenodd" d="M192.173 94.8163L161.589 84.4101C161.331 84.3228 161.325 84.0205 161.581 83.9267L192.746 72.4885C193.106 72.3569 193.517 72.3517 193.882 72.4755L224.466 82.8816C224.724 82.9702 224.729 83.2725 224.474 83.365L193.309 94.8032C192.948 94.9361 192.538 94.94 192.173 94.8163Z" fill="#AEB7FF"/>
<path fill-rule="evenodd" clip-rule="evenodd" d="M192.173 94.8163L161.589 84.4101C161.331 84.3228 161.325 84.0205 161.581 83.9267L192.746 72.4885C193.106 72.3569 193.517 72.3517 193.882 72.4755L224.466 82.8816C224.724 82.9702 224.729 83.2725 224.474 83.365L193.309 94.8032C192.948 94.9361 192.538 94.94 192.173 94.8163Z" stroke="#161F31" stroke-width="1.47453"/>
<path d="M179.087 118.121L192.04 122.695C192.403 122.824 192.81 122.819 193.17 122.681L206.969 117.426" stroke="#161F31" stroke-width="1.47453"/>
<path d="M169.971 96.4028L191.979 103.931C192.344 104.055 192.752 104.051 193.113 103.918L216.084 95.4423" stroke="#161F31" stroke-width="1.47453"/>
<path d="M174.797 107.529L192.278 113.581C192.642 113.708 193.05 113.703 193.41 113.569L211.794 106.702" stroke="#161F31" stroke-width="1.47453"/>
</g>
<g clip-path="url(#clip1_219_140)">
<path d="M9.11513 122.788C4.67296 122.788 1.07227 119.176 1.07227 114.721V80.4531C1.07227 75.9975 4.67296 72.3859 9.11513 72.3859" stroke="#161F31" stroke-width="1.47453"/>
<path d="M43.4313 72.386C47.8734 72.386 51.4741 75.9975 51.4741 80.4531V114.721C51.4741 119.176 47.8734 122.788 43.4313 122.788" stroke="#161F31" stroke-width="1.47453"/>
<path fill-rule="evenodd" clip-rule="evenodd" d="M17.6943 84.7184C17.6943 87.0876 15.774 89.0079 13.4048 89.0079C11.0355 89.0079 9.11523 87.0876 9.11523 84.7184C9.11523 82.3491 11.0355 80.4289 13.4048 80.4289C15.774 80.4289 17.6943 82.3491 17.6943 84.7184Z" fill="#AEB7FF"/>
<path fill-rule="evenodd" clip-rule="evenodd" d="M30.5625 97.587C30.5625 99.9562 28.6422 101.877 26.2729 101.877C23.9037 101.877 21.9834 99.9562 21.9834 97.587C21.9834 95.2177 23.9037 93.2975 26.2729 93.2975C28.6422 93.2975 30.5625 95.2177 30.5625 97.587Z" fill="#5961FF"/>
<path fill-rule="evenodd" clip-rule="evenodd" d="M17.6943 110.455C17.6943 112.825 15.774 114.745 13.4048 114.745C11.0355 114.745 9.11523 112.825 9.11523 110.455C9.11523 108.086 11.0355 106.166 13.4048 106.166C15.774 106.166 17.6943 108.086 17.6943 110.455Z" fill="#AEB7FF"/>
<path fill-rule="evenodd" clip-rule="evenodd" d="M17.6943 84.7184C17.6943 87.0876 15.774 89.0079 13.4048 89.0079C11.0355 89.0079 9.11523 87.0876 9.11523 84.7184C9.11523 82.3491 11.0355 80.4289 13.4048 80.4289C15.774 80.4289 17.6943 82.3491 17.6943 84.7184Z" stroke="#161F31" stroke-width="1.47453"/>
<path fill-rule="evenodd" clip-rule="evenodd" d="M17.6943 97.587C17.6943 99.9562 15.774 101.877 13.4048 101.877C11.0355 101.877 9.11523 99.9562 9.11523 97.587C9.11523 95.2177 11.0355 93.2975 13.4048 93.2975C15.774 93.2975 17.6943 95.2177 17.6943 97.587Z" stroke="#161F31" stroke-width="1.47453"/>
<path fill-rule="evenodd" clip-rule="evenodd" d="M17.6943 110.455C17.6943 112.825 15.774 114.745 13.4048 114.745C11.0355 114.745 9.11523 112.825 9.11523 110.455C9.11523 108.086 11.0355 106.166 13.4048 106.166C15.774 106.166 17.6943 108.086 17.6943 110.455Z" stroke="#161F31" stroke-width="1.47453"/>
<path fill-rule="evenodd" clip-rule="evenodd" d="M30.5625 84.7184C30.5625 87.0876 28.6422 89.0079 26.2729 89.0079C23.9037 89.0079 21.9834 87.0876 21.9834 84.7184C21.9834 82.3491 23.9037 80.4289 26.2729 80.4289C28.6422 80.4289 30.5625 82.3491 30.5625 84.7184Z" stroke="#161F31" stroke-width="1.47453"/>
<path fill-rule="evenodd" clip-rule="evenodd" d="M30.5625 97.587C30.5625 99.9562 28.6422 101.877 26.2729 101.877C23.9037 101.877 21.9834 99.9562 21.9834 97.587C21.9834 95.2177 23.9037 93.2975 26.2729 93.2975C28.6422 93.2975 30.5625 95.2177 30.5625 97.587Z" stroke="#161F31" stroke-width="1.47453"/>
<path fill-rule="evenodd" clip-rule="evenodd" d="M30.5625 110.455C30.5625 112.825 28.6422 114.745 26.2729 114.745C23.9037 114.745 21.9834 112.825 21.9834 110.455C21.9834 108.086 23.9037 106.166 26.2729 106.166C28.6422 106.166 30.5625 108.086 30.5625 110.455Z" stroke="#161F31" stroke-width="1.47453"/>
<path fill-rule="evenodd" clip-rule="evenodd" d="M43.9673 84.7184C43.9673 87.0876 42.047 89.0079 39.6778 89.0079C37.3085 89.0079 35.3882 87.0876 35.3882 84.7184C35.3882 82.3491 37.3085 80.4289 39.6778 80.4289C42.047 80.4289 43.9673 82.3491 43.9673 84.7184Z" stroke="#161F31" stroke-width="1.47453"/>
<path fill-rule="evenodd" clip-rule="evenodd" d="M43.9673 97.587C43.9673 99.9562 42.047 101.877 39.6778 101.877C37.3085 101.877 35.3882 99.9562 35.3882 97.587C35.3882 95.2177 37.3085 93.2975 39.6778 93.2975C42.047 93.2975 43.9673 95.2177 43.9673 97.587Z" stroke="#161F31" stroke-width="1.47453"/>
<path fill-rule="evenodd" clip-rule="evenodd" d="M43.9673 110.455C43.9673 112.825 42.047 114.745 39.6778 114.745C37.3085 114.745 35.3882 112.825 35.3882 110.455C35.3882 108.086 37.3085 106.166 39.6778 106.166C42.047 106.166 43.9673 108.086 43.9673 110.455Z" stroke="#161F31" stroke-width="1.47453"/>
</g>
<g clip-path="url(#clip2_219_140)">
<path fill-rule="evenodd" clip-rule="evenodd" d="M67.3689 4.28967C77.9238 4.28967 86.4803 10.9658 86.4803 19.1999C86.4803 21.8689 85.5811 24.3729 84.0078 26.5399L90.6193 31.3921C91.6103 32.157 92.2251 33.2175 92.2251 34.3908C92.2251 36.7197 89.806 38.6059 86.821 38.6059C85.3515 38.6059 84.0197 38.1485 83.0449 37.4058L76.2394 32.4095C73.5892 33.4952 70.5702 34.1101 67.3689 34.1101C56.814 34.1101 48.2574 27.434 48.2574 19.1999C48.2574 10.9658 56.814 4.28967 67.3689 4.28967ZM67.0249 11.7963C61.9901 11.7963 57.9089 15.0368 57.9089 19.0349C57.9089 23.0331 61.9901 26.2735 67.0249 26.2735C72.0581 26.2735 76.1394 23.0331 76.1394 19.0349C76.1394 15.0368 72.0581 11.7963 67.0249 11.7963Z" fill="#AEB7FF"/>
<path fill-rule="evenodd" clip-rule="evenodd" d="M76.1393 19.035C76.1393 23.0332 72.0581 26.2736 67.0248 26.2736C61.99 26.2736 57.9088 23.0332 57.9088 19.035C57.9088 15.0369 61.99 11.7964 67.0248 11.7964C72.0581 11.7964 76.1393 15.0369 76.1393 19.035Z" stroke="#161F31" stroke-width="1.47453"/>
<path fill-rule="evenodd" clip-rule="evenodd" d="M76.2394 32.4095C73.5892 33.4952 70.5702 34.1101 67.3689 34.1101C56.814 34.1101 48.2574 27.434 48.2574 19.1999C48.2574 10.9658 56.814 4.28967 67.3689 4.28967C77.9238 4.28967 86.4803 10.9658 86.4803 19.1999C86.4803 21.8689 85.5811 24.3729 84.0078 26.5399L90.6193 31.3921C91.6103 32.157 92.2251 33.2175 92.2251 34.3908C92.2251 36.7197 89.806 38.6059 86.821 38.6059C85.3515 38.6059 84.0197 38.1485 83.0449 37.4058L76.2394 32.4095Z" stroke="#161F31" stroke-width="1.47453"/>
<path d="M91.7488 40.7145C92.0539 41.2409 92.2251 41.8251 92.2251 42.4405C92.2251 44.7641 89.7943 46.6488 86.7963 46.6488C85.3197 46.6488 83.98 46.1921 83.0005 45.4507L76.162 40.4624C73.499 41.5463 70.4668 42.1588 67.2485 42.1588C57.6146 42.1588 49.6373 36.6603 48.2574 29.4907" stroke="#161F31" stroke-width="1.47453"/>
<path d="M91.7488 48.7574C92.0539 49.2838 92.2251 49.868 92.2251 50.4834C92.2251 52.807 89.7943 54.6917 86.7963 54.6917C85.3197 54.6917 83.98 54.235 83.0005 53.4936L76.162 48.5053C73.499 49.5892 70.4668 50.2017 67.2485 50.2017C57.6146 50.2017 49.6373 44.7032 48.2574 37.5336" stroke="#161F31" stroke-width="1.47453"/>
</g>
<path d="M138.874 115.281H90.5663C87.0414 115.281 84.1827 112.424 84.1827 108.898V72.386" stroke="#161F31" stroke-width="1.47453"/>
<path fill-rule="evenodd" clip-rule="evenodd" d="M89.0285 98.8988L94.3286 104.278L106.808 91.6115L113.134 98.0309L127.837 83.1098V110.456L89.0285 110.28V98.8988Z" fill="#51CCCA"/>
<path d="M76.6758 79.8927L83.9144 72.386L91.1529 79.8927" stroke="#161F31" stroke-width="1.47453"/>
<path d="M131.367 108.311L138.874 115.549L131.367 122.788" stroke="#161F31" stroke-width="1.47453"/>
<path d="M89.0084 98.7075L94.2808 104.021L106.696 91.5088L112.988 97.8506L127.614 83.1098" stroke="#161F31" stroke-width="1.47453"/>
<g clip-path="url(#clip3_219_140)">
<path fill-rule="evenodd" clip-rule="evenodd" d="M127.614 28.4183H125.166L123.861 33.7802H125.683L127.614 28.4183Z" fill="#161F31"/>
<path fill-rule="evenodd" clip-rule="evenodd" d="M125.759 22.6047C126.602 22.6047 127.285 21.9206 127.285 21.0761C127.285 20.2333 126.602 19.5492 125.759 19.5492C124.915 19.5492 124.232 20.2333 124.232 21.0761C124.232 21.9206 124.915 22.6047 125.759 22.6047Z" fill="#161F31"/>
<path d="M131.533 1.0724C128.344 1.0724 125.759 3.66191 125.759 6.85623V10.9875" stroke="#161F31" stroke-width="1.47453"/>
<path fill-rule="evenodd" clip-rule="evenodd" d="M150.506 1.0724V12.6401C150.506 15.8344 153.092 18.4239 156.281 18.4239H167.83" fill="#B6F2F0"/>
<path d="M150.506 1.0724V12.6401C150.506 15.8344 153.092 18.4239 156.281 18.4239H167.83" stroke="#161F31" stroke-width="1.47453"/>
<path d="M131.533 1.0724H151.331L167.829 17.5976V45.6905C167.829 48.8849 165.244 51.4744 162.055 51.4744H131.533C128.344 51.4744 125.759 48.8849 125.759 45.6905V42.3855" stroke="#161F31" stroke-width="1.47453"/>
<path d="M138.133 25.8604C136.31 25.8604 134.833 24.3814 134.833 22.5553V17.5977C134.833 15.7717 133.356 14.2927 131.533 14.2927" stroke="#161F31" stroke-width="1.47453"/>
<path d="M138.133 25.8603C136.31 25.8603 134.833 27.3393 134.833 29.1653V34.1229C134.833 35.9489 133.356 37.428 131.533 37.428" stroke="#161F31" stroke-width="1.47453"/>
<path d="M114.21 25.8603C116.033 25.8603 117.51 27.3393 117.51 29.1653V34.1229C117.51 35.9489 118.986 37.428 120.809 37.428" stroke="#161F31" stroke-width="1.47453"/>
<path d="M114.21 25.8604C116.033 25.8604 117.51 24.3814 117.51 22.5553V17.5977C117.51 15.7717 118.986 14.2927 120.809 14.2927" stroke="#161F31" stroke-width="1.47453"/>
</g>
<defs>
<clipPath id="clip0_219_140">
<rect width="65.4153" height="52.5467" fill="white" transform="translate(160.321 71.3135)"/>
</clipPath>
<clipPath id="clip1_219_140">
<rect width="52.5467" height="52.5467" fill="white" transform="translate(0 71.3135)"/>
</clipPath>
<clipPath id="clip2_219_140">
<rect width="46.1124" height="52.5467" fill="white" transform="translate(47.1846 3.21729)"/>
</clipPath>
<clipPath id="clip3_219_140">
<rect width="54.6915" height="52.5467" fill="white" transform="translate(114.209)"/>
</clipPath>
</defs>
</svg>
