<svg width="74" height="69" viewBox="0 0 74 69" fill="none" xmlns="http://www.w3.org/2000/svg">
<path d="M36.4399 53.9713L1.39466 39.6504C1.00953 39.5036 0.679736 39.2407 0.451061 38.8983C0.222387 38.5558 0.10618 38.1508 0.118573 37.7394V31.4401C0.115751 31.1081 0.196498 30.7808 0.353401 30.4881C0.510304 30.1954 0.738336 29.9468 1.01656 29.765C1.2952 29.5782 1.61584 29.4632 1.94985 29.4302C2.28386 29.3973 2.62084 29.4475 2.9307 29.5763L37.3379 43.8736L36.4399 46.0677L2.4817 31.912V37.5271L37.3379 51.8951L36.4399 53.9713Z" fill="#161F31"/>
<path d="M1.75216 14.3878L0.843262 16.5656L36.4211 31.3657L37.33 29.1879L1.75216 14.3878Z" fill="#161F31"/>
<path d="M36.5579 68.9999C36.2918 68.9969 36.0281 68.9491 35.778 68.8584L1.37083 54.5375C0.999709 54.3869 0.682156 54.129 0.458974 53.7969C0.235793 53.4648 0.117179 53.0736 0.118374 52.6737V45.9733C0.115875 45.6381 0.196581 45.3075 0.353282 45.0111C0.509982 44.7147 0.737795 44.4617 1.01636 44.2746C1.29534 44.0876 1.6173 43.9743 1.95209 43.9454C2.28687 43.9165 2.62353 43.973 2.9305 44.1094L35.7071 57.7225V39.5088L1.25268 25.1879C0.881529 25.0306 0.564911 24.7678 0.342219 24.4322C0.119527 24.0966 0.000593696 23.703 0.000217248 23.3005V16.0339C-0.00573268 15.6299 0.110657 15.2336 0.334141 14.8968C0.557625 14.56 0.877782 14.2985 1.25268 14.1464L35.2581 0.155848C35.568 0.0270575 35.905 -0.0231104 36.239 0.00982471C36.573 0.0427599 36.8936 0.157773 37.1723 0.344591C37.4505 0.526371 37.6785 0.775017 37.8354 1.0677C37.9923 1.36039 38.0731 1.68773 38.0703 2.01969V8.17744L44.1908 5.11036C44.5003 4.95812 44.8437 4.8871 45.1883 4.90398C45.533 4.92086 45.8677 5.02508 46.1609 5.20683C46.454 5.38859 46.696 5.64187 46.864 5.94283C47.032 6.24378 47.1205 6.58248 47.1211 6.92701V63.2905C47.1281 63.6824 47.02 64.0679 46.81 64.3991C46.6 64.7304 46.2974 64.9929 45.9395 65.1543L37.3613 68.8348C37.1082 68.9458 36.8343 69.0021 36.5579 68.9999ZM2.4815 52.4849L36.5579 66.6407C38.0703 66.0036 42.9619 63.9039 44.7579 63.1017V7.46965L38.0703 10.8198V58.2416C38.0731 58.5735 37.9923 58.9009 37.8354 59.1936C37.6785 59.4863 37.4505 59.7349 37.1723 59.9167C36.8928 60.1016 36.5723 60.2154 36.2387 60.2483C35.905 60.2812 35.5684 60.2322 35.2581 60.1054L2.4815 46.4687V52.4849ZM2.36335 23.0882L35.7071 36.9608V2.51514L2.36335 16.2698V23.0882Z" fill="#161F31"/>
<path d="M64.6551 57.6046C64.118 57.5985 63.6047 57.3827 63.2249 57.0036C62.8451 56.6244 62.629 56.1118 62.6228 55.5756V26.0845C62.621 25.7441 62.707 25.4091 62.8726 25.1115C63.0382 24.814 63.2777 24.5641 63.5681 24.3858C63.8571 24.2005 64.1881 24.0904 64.5307 24.0657C64.8734 24.041 65.2167 24.1024 65.5295 24.2442L72.5007 27.5472C72.8486 27.7128 73.1422 27.9737 73.3473 28.2995C73.5523 28.6254 73.6603 29.0027 73.6587 29.3875V52.6737C73.6587 53.0703 73.5423 53.4581 73.3239 53.7894C73.1055 54.1207 72.7947 54.3807 72.4298 54.5375L65.3404 57.4395C65.1216 57.5284 64.8905 57.5841 64.6551 57.6046ZM64.986 26.6035V55.0802L71.2955 52.4378V29.5998L64.986 26.6035Z" fill="#161F31"/>
<path d="M72.0611 28.1588L63.0034 32.705L64.0648 34.8129L73.1225 30.2667L72.0611 28.1588Z" fill="#161F31"/>
<path d="M9.21431 26.2987L1.31152 29.5684L2.21624 31.748L10.119 28.4782L9.21431 26.2987Z" fill="#161F31"/>
<path d="M9.46982 40.7593L1.06128 44.228L1.9637 46.4085L10.3722 42.9398L9.46982 40.7593Z" fill="#161F31"/>
<path d="M51.2088 63.2198C50.8059 63.2272 50.4103 63.112 50.0745 62.8895C49.7959 62.7024 49.5681 62.4494 49.4114 62.1529C49.2547 61.8565 49.174 61.5259 49.1765 61.1908V12.0703C49.1752 11.7269 49.2612 11.3887 49.4265 11.0874C49.5918 10.7862 49.8311 10.5318 50.1218 10.3481C50.4171 10.1805 50.751 10.0925 51.0906 10.0925C51.4303 10.0925 51.7642 10.1805 52.0595 10.3481L59.1489 13.6275C59.8815 13.9814 60.236 14.1465 60.236 35.1442V58.4304C60.2301 58.8256 60.1114 59.211 59.8937 59.5411C59.676 59.8713 59.3684 60.1326 59.0071 60.2942L51.9177 63.1962C51.6843 63.2427 51.4448 63.2507 51.2088 63.2198ZM51.6105 12.5894V60.6953L57.9201 58.0765V35.0262C57.9201 33.4927 57.8019 18.5112 57.5893 15.3734L51.6105 12.5894Z" fill="#161F31"/>
<path d="M58.6873 14.1122L49.6297 18.6583L50.6911 20.7662L59.7488 16.2201L58.6873 14.1122Z" fill="#161F31"/>
<path d="M44.8998 7.23363L35.8726 2.3499C35.9292 2.38552 35.9947 2.40443 36.0617 2.40443C36.1286 2.40443 36.1941 2.38552 36.2507 2.3499C36.2991 2.31952 36.3394 2.27791 36.3682 2.22861C36.397 2.17931 36.4135 2.12379 36.4161 2.06678H34.053C34.0516 1.72329 34.1377 1.38509 34.303 1.08385C34.4683 0.782621 34.7075 0.528223 34.9982 0.344498C35.3012 0.187335 35.6376 0.105286 35.9789 0.105286C36.3203 0.105286 36.6567 0.187335 36.9596 0.344498L46.0813 5.18104L44.8998 7.23363Z" fill="#161F31"/>
</svg>
