<svg width="39" height="31" viewBox="0 0 39 31" fill="none" xmlns="http://www.w3.org/2000/svg">
<path d="M21.7371 15.2903C21.5759 15.2895 21.4198 15.2337 21.2947 15.1321C21.1695 15.0305 21.0828 14.8892 21.049 14.7316C21.0152 14.574 21.0362 14.4096 21.1086 14.2655C21.1811 14.1215 21.3005 14.0066 21.4472 13.9397L35.7199 7.47338L21.4578 1.34289C21.2943 1.26329 21.1678 1.12377 21.1045 0.953307C21.0412 0.78285 21.046 0.594558 21.1179 0.427547C21.1898 0.260535 21.3233 0.127641 21.4906 0.0564719C21.6579 -0.0146977 21.8462 -0.0186728 22.0164 0.045373L37.7492 6.80518C37.8747 6.8605 37.9814 6.95112 38.0563 7.06599C38.1312 7.18086 38.171 7.31503 38.171 7.45216C38.171 7.58929 38.1312 7.72347 38.0563 7.83834C37.9814 7.95321 37.8747 8.04383 37.7492 8.09915L22.0306 15.2266C21.9388 15.2698 21.8385 15.2916 21.7371 15.2903Z" fill="#DB2E2E"/>
<path d="M16.4339 15.2903C16.3379 15.2906 16.2429 15.2714 16.1546 15.2337L0.421813 8.47393C0.296339 8.41861 0.18966 8.32799 0.114767 8.21312C0.0398745 8.09825 0 7.96407 0 7.82694C0 7.68981 0.0398745 7.55564 0.114767 7.44077C0.18966 7.3259 0.296339 7.23528 0.421813 7.17995L16.1546 0.052465C16.3235 -0.0111265 16.5104 -0.00772359 16.6768 0.0619772C16.8433 0.131678 16.9768 0.2624 17.0501 0.427363C17.1233 0.592325 17.1306 0.779042 17.0706 0.949259C17.0106 1.11948 16.8878 1.26031 16.7274 1.34291L2.44763 7.80573L16.7132 13.9362C16.8612 14.0015 16.9823 14.1154 17.0565 14.2592C17.1306 14.4029 17.1532 14.5677 17.1205 14.7261C17.0878 14.8845 17.0019 15.0269 16.8769 15.1295C16.752 15.2322 16.5956 15.2889 16.4339 15.2903Z" fill="#DB2E2E"/>
<path fill-rule="evenodd" clip-rule="evenodd" d="M29.1651 17.4328C32.2939 16.1565 35.3698 14.9049 36.3526 14.3711L37.1163 13.9539C37.3908 13.8108 37.6564 13.6514 37.9118 13.4766C37.972 13.8833 37.972 14.2967 37.9118 14.7034C37.8022 15.1312 37.4875 15.4847 36.289 16.061C35.4617 16.4605 33.1531 17.408 30.5792 18.4687C26.9625 19.9571 22.8012 21.6506 21.4966 22.3577C19.2587 23.4183 18.0284 23.4183 16.3137 22.644C15.4864 22.2021 12.4918 20.9117 9.39476 19.5611C6.07496 18.1151 2.63849 16.6161 1.61674 16.0858C0.22377 15.3575 0.153061 15.1948 0.160132 14.8271V13.8655L0.513678 14.0564C1.82533 14.7211 7.73309 17.2383 12.0004 19.0768C14.1146 19.9748 15.8116 20.7066 16.3773 20.9612C18.092 21.7319 19.3082 21.8733 21.5603 20.6748C22.7022 20.0808 25.9619 18.7409 29.1651 17.4328Z" fill="#494C4D"/>
<path fill-rule="evenodd" clip-rule="evenodd" d="M29.1651 24.5037C32.2939 23.2274 35.3698 21.9758 36.3526 21.442L37.1163 21.0248C37.3908 20.8817 37.6564 20.7223 37.9118 20.5475C37.972 20.9542 37.972 21.3676 37.9118 21.7743C37.8022 22.2021 37.4875 22.5557 36.289 23.1319C35.4617 23.5314 33.1531 24.4789 30.5792 25.5396C26.9625 27.028 22.8012 28.7215 21.4966 29.4286C19.2587 30.4892 18.0284 30.4892 16.3137 29.715C15.4864 29.2801 12.4918 27.9755 9.39476 26.625C6.07496 25.179 2.63849 23.6799 1.61674 23.1496C0.22377 22.4213 0.153061 22.2587 0.160132 21.891V20.9364L0.513678 21.1273C1.82533 21.792 7.73309 24.3092 12.0004 26.1477C14.1005 27.0457 15.801 27.7775 16.3667 28.0321C18.0814 28.8028 19.2976 28.9442 21.5497 27.7457C22.7022 27.1518 25.9619 25.8118 29.1651 24.5037Z" fill="#494C4D"/>
</svg>
